# AST/ASF file generated using VICON BodyLanguage
# -----------------------------------------------
:version 1.10
:name VICON
:units
  mass 1.0
  length 0.45
  angle deg
:documentation
   .ast/.asf automatically generated from VICON data using
   VICON BodyBuilder and BodyLanguage model FoxedUp or BRILLIANT.MOD
:root
   order TX TY TZ RX RY RZ
   axis XYZ
   position 0 0 0  
   orientation 0 0 0 
:bonedata
  begin
     id 1 
     name lhipjoint
     direction 0.603808 -0.713975 0.35448 
     length 2.2025 
     axis 0 0 0  XYZ
  end
  begin
     id 2 
     name lfemur
     direction 0.34202 -0.939693 0  
     length 6.55877  
     axis 0 0 20  XYZ
    dof rx ry rz
    limits (-160.0 20.0)
           (-70.0 70.0)
           (-60.0 70.0)
  end
  begin
     id 3 
     name ltibia
     direction 0.34202 -0.939693 0   
     length 6.80302   
     axis 0 0 20   XYZ
    dof rx
    limits (-10.0 170.0)
  end
  begin
     id 4 
     name lfoot
     direction 0.091848 -0.25235 0.963267   
     length 2.03446   
     axis -90 7.62852e-016 20   XYZ
    dof rx rz
    limits (-45.0 90.0)
           (-70.0 20.0)
  end
  begin
     id 5 
     name ltoes
     direction 1.53608e-011 -4.21925e-011 1   
     length 1.02033   
     axis -90 7.62852e-016 20   XYZ
    dof rx
    limits (-90.0 20.0)
  end
  begin
     id 6 
     name rhipjoint
     direction -0.587285 -0.724947 0.359928   
     length 2.16916  
     axis 0 0 0  XYZ 
  end
  begin
     id 7 
     name rfemur
     direction -0.34202 -0.939693 0   
     length 6.43173   
     axis 0 0 -20   XYZ
    dof rx ry rz
    limits (-160.0 20.0)
           (-70.0 70.0)
           (-70.0 60.0)
  end
  begin
     id 8 
     name rtibia
     direction -0.34202 -0.939693 0   
     length 6.70662   
     axis 0 0 -20   XYZ
    dof rx
    limits (-10.0 170.0)
 end
 begin
     id 9 
     name rfoot
     direction -0.11854 -0.325686 0.938018   
     length 2.0773  
     axis -90 -7.62852e-016 -20   XYZ
    dof rx rz
    limits (-45.0 90.0)
           (-20.0 70.0)
  end
  begin
     id 10 
     name rtoes
     direction -1.53547e-011 -4.21838e-011 1   
     length 1.03267   
     axis -90 -7.62852e-016 -20   XYZ
    dof rx
    limits (-90.0 20.0)
  end
  begin
     id 11 
     name lowerback
     direction -0.0286554 0.999539 0.0100613   
     length 2.08751   
     axis 0 0 0   XYZ
    dof rx ry rz
    limits (-20.0 45.0)
           (-30.0 30.0)
           (-30.0 30.0)
  end
  begin
     id 12 
     name upperback
     direction 0.0227093 0.999705 -0.00860929   
     length 2.08517   
     axis 0 0 0   XYZ
    dof rx ry rz
    limits (-20.0 45.0)
           (-30.0 30.0)
           (-30.0 30.0)
  end
  begin
     id 13 
     name thorax
     direction 0.0351627 0.999285 -0.013892   
     length 2.08412   
     axis 0 0 0   XYZ
    dof rx ry rz
    limits (-20.0 45.0)
           (-30.0 30.0)
           (-30.0 30.0)
  end
  begin
     id 14 
     name lowerneck
     direction -0.0696283 0.997344 0.0213922   
     length 1.44164   
     axis 0 0 0   XYZ
    dof rx ry rz
    limits (-20.0 45.0)
           (-30.0 30.0)
           (-30.0 30.0)
  end
  begin
     id 15 
     name upperneck
     direction 0.0531 0.990412 -0.127531   
     length 1.45022   
     axis 0 0 0   XYZ
    dof rx ry rz
    limits (-20.0 45.0)
           (-30.0 30.0)
           (-30.0 30.0)
  end
  begin
     id 16
     name head
     direction 0.0188154 0.998548 -0.0504727  
     length 1.45845  
     axis 0 0 0   XYZ
    dof rx ry rz
    limits (-20.0 45.0)
           (-30.0 30.0)
           (-30.0 30.0)
  end
  begin
     id 17 
     name lclavicle
     direction 0.961559 0.260051 0.088188  
     length 2.86057  
     axis 0 0 0   XYZ
    dof ry rz
    limits (-20.0 10.0)
           (0.0 20.0)
  end
  begin
     id 18 
     name lhumerus
     direction 1 -4.48959e-011 2.88185e-027   
     length 4.36901   
     axis 180 -30 -90   XYZ
    dof rx ry rz
    limits (-60.0 90.0)
           (-90.0 90.0)
           (-90.0 90.0)
  end
  begin
     id 19
     name lradius
     direction 1 -4.48965e-011 -3.92618e-028   
     length 3.21737   
     axis 180 -30 -90   XYZ
    dof rx
    limits (-10.0 170.0)
  end
  begin
     id 20
     name lwrist
     direction 1 -4.49037e-011 2.57246e-027   
     length 1.60869   
     axis -1.61769e-015 90 90   XYZ
    dof ry
    limits (-180.0 0.0)
 end
  begin
     id 21 
     name lhand
     direction 1 -4.48807e-011 5.12958e-027   
     length 0.564313   
     axis -3.27988e-015 90 90   XYZ
    dof rx rz
    limits (-90.0 90.0)
           (-45.0 45.0)
  end
  begin
     id 22 
     name lfingers
     direction 1 -4.48879e-011 1.02687e-026   
     length 0.454963   
     axis -6.5598e-015 90 90   XYZ
    dof rx
    limits (0.0 90.0)
  end
  begin
     id 23
     name lthumb
     direction 0.707107 -6.3475e-011 0.707107   
     length 0.653239   
     axis -90 45 2.19363e-014   XYZ
    dof rx rz
    limits (-45.0 45.0)
           (-45.0 45.0)
  end
  begin
     id 24 
     name rclavicle
     direction -0.954677 0.253915 0.155304   
     length 3.11497  
     axis 0 0 0   XYZ 
    dof ry rz
    limits (-10.0 20.0)
           (-20.0 0.0)
  end
  begin
     id 25 
     name rhumerus
     direction -1 -4.48958e-011 -8.20169e-028  
     length 4.34118   
     axis 180 30 90   XYZ
    dof rx ry rz
    limits (-90.0 60.0)
           (-90.0 90.0)
           (-90.0 90.0)
  end
  begin
     id 26 
     name rradius
     direction -1 -4.48978e-011 1.5676e-027   
     length 3.09531   
     axis 180 30 90   XYZ
    dof rx
    limits (-10.0 170.0)
  end
  begin
     id 27 
     name rwrist
     direction -1 -4.49001e-011 2.57123e-027   
     length 1.54765   
     axis -1.61769e-015 -90 -90   XYZ
    dof ry
    limits (-180.0 0.0)
  end
  begin
     id 28
     name rhand
     direction -1 -4.48847e-011 5.13225e-027   
     length 0.597446   
     axis -3.27988e-015 -90 -90   XYZ
    dof rx rz
    limits (-90.0 90.0)
           (-45.0 45.0)
  end
  begin
     id 29
     name rfingers
     direction -1 -4.49094e-011 1.02974e-026   
     length 0.481677   
     axis -6.5598e-015 -90 -90   XYZ
    dof rx
    limits (0.0 90.0)
  end
  begin
     id 30
     name rthumb
     direction -0.707107 -6.34859e-011 0.707107   
     length 0.691594   
     axis -90 -45 -2.19363e-014   XYZ
    dof rx rz
    limits (-45.0 45.0)
           (-45.0 45.0)
  end
:hierarchy
  begin
    root lhipjoint rhipjoint lowerback
    lhipjoint lfemur
    lfemur ltibia
    ltibia lfoot
    lfoot ltoes
    rhipjoint rfemur
    rfemur rtibia
    rtibia rfoot
    rfoot rtoes
    lowerback upperback
    upperback thorax
    thorax lowerneck lclavicle rclavicle
    lowerneck upperneck
    upperneck head
    lclavicle lhumerus
    lhumerus lradius
    lradius lwrist
    lwrist lhand lthumb
    lhand lfingers
    rclavicle rhumerus
    rhumerus rradius
    rradius rwrist
    rwrist rhand rthumb
    rhand rfingers
  end

#!OML:ASF I:\Acrobat_Osman\acrobat\cartwheel_test 2\Patient 1\Session 1\acrobat.ASF
:FULLY-SPECIFIED
:DEGREES
117
root 9.63226 14.899 7.46662 188.743 -20.1508 -180.057
lowerback 1.56078 -2.14261 -4.97246
upperback 4.89992 -3.28063 4.07359
thorax 4.74844 -2.0821 6.96477
lowerneck -2.81232 -8.56588 -10.5886
upperneck -5.25678 -11.1193 10.9794
head 0.127374 -5.58391 4.77172
rclavicle -2.72335e-014 3.26007e-014
rhumerus -43.4153 9.77391 -80.8775
rradius 64.5056
rwrist -9.11943
rhand -15.6205 24.0262
rfingers 7.12502
rthumb 10.5662 -5.68819
lclavicle -2.72335e-014 3.26007e-014
lhumerus -47.8144 -17.5668 102.862
lradius 81.7435
lwrist 18.7896
lhand -20.2819 43.4241
lfingers 7.12502
lthumb 6.06766 73.3172
rfemur -38.932 -6.87932 15.9309
rtibia 61.2046
rfoot -21.9236 -8.55365
rtoes -23.9322
lfemur -30.9618 19.3413 -22.5012
ltibia 67.836
lfoot -23.1913 20.2593
ltoes -32.2892
118
root 9.60581 14.8666 7.49889 188.884 -19.9292 -179.818
lowerback 2.16336 -2.25736 -4.67898
upperback 5.02021 -3.50635 4.30706
thorax 4.56643 -2.20467 7.06165
lowerneck -2.34881 -8.83047 -10.6001
upperneck -5.79002 -11.4924 11.4188
head -0.033387 -5.79604 4.92388
rclavicle 1.47101e-014 2.06736e-014
rhumerus -43.0556 9.84269 -80.421
rradius 65.3589
rwrist -9.32972
rhand -16.2267 23.9706
rfingers 7.12502
rthumb 9.98145 -5.77274
lclavicle 1.47101e-014 2.06736e-014
lhumerus -47.8686 -18.3225 104.124
lradius 83.0537
lwrist 18.2175
lhand -20.2303 42.9226
lfingers 7.12502
lthumb 6.1175 72.8142
rfemur -39.4297 -6.75702 16.1032
rtibia 61.4223
rfoot -22.1684 -8.66937
rtoes -24.1614
lfemur -32.245 17.2275 -21.3835
ltibia 69.2492
lfoot -23.6487 17.2779
ltoes -31.328
119
root 9.5758 14.8406 7.54008 189.023 -19.6186 -179.669
lowerback 2.69736 -2.3016 -4.64572
upperback 5.31872 -3.65231 4.54309
thorax 4.61939 -2.31875 7.30992
lowerneck -2.33127 -9.15819 -10.8805
upperneck -6.1341 -11.9156 12.1377
head -0.0237355 -6.02459 5.16941
rclavicle 4.59193e-014 4.21423e-014
rhumerus -42.3989 9.97225 -79.9125
rradius 66.221
rwrist -10.0971
rhand -17.2534 24.1757
rfingers 7.12502
rthumb 8.99085 -5.61269
lclavicle 4.59193e-014 4.21423e-014
lhumerus -47.654 -19.3672 105.381
lradius 84.6339
lwrist 17.4032
lhand -20.1708 42.1416
lfingers 7.12502
lthumb 6.17493 72.0316
rfemur -39.8562 -6.68509 16.1978
rtibia 61.4561
rfoot -22.2331 -8.47724
rtoes -22.2293
lfemur -33.3976 14.9142 -20.2707
ltibia 69.8248
lfoot -24.6607 13.4709
ltoes -29.3944
120
root 9.54194 14.8316 7.58387 189.183 -19.0253 -179.679
lowerback 3.28936 -2.20277 -4.89325
upperback 5.68117 -3.61056 4.69043
thorax 4.69139 -2.3536 7.63357
lowerneck -2.247 -9.50484 -11.0755
upperneck -6.65577 -12.3672 12.8082
head -0.0773314 -6.27671 5.3947
rclavicle 3.4191e-014 -5.00937e-014
rhumerus -41.6786 10.0995 -79.4353
rradius 67.1009
rwrist -11.1783
rhand -18.2616 24.2326
rfingers 7.12502
rthumb 8.01787 -5.59536
lclavicle 3.4191e-014 -5.00937e-014
lhumerus -47.5668 -20.7366 106.64
lradius 86.5658
lwrist 16.5041
lhand -20.0677 41.569
lfingers 7.12502
lthumb 6.27447 71.456
rfemur -40.239 -6.55851 16.1227
rtibia 61.2775
rfoot -22.1429 -8.59619
rtoes -21.593
lfemur -34.6679 13.2074 -19.654
ltibia 69.5165
lfoot -24.3554 12.2186
ltoes -34.1315
121
root 9.50273 14.8413 7.6367 189.418 -18.2098 -179.667
lowerback 3.94358 -2.03274 -5.18614
upperback 5.99106 -3.46717 4.75217
thorax 4.65122 -2.32964 7.89783
lowerneck -2.14285 -9.80563 -11.2453
upperneck -7.21094 -12.7585 13.5456
head -0.142648 -6.50583 5.64122
rclavicle -4.21423e-014 2.3059e-014
rhumerus -41.0915 10.2444 -79.1714
rradius 67.9738
rwrist -12.1659
rhand -19.3117 24.0042
rfingers 7.12502
rthumb 7.0043 -5.85995
lclavicle -4.21423e-014 2.3059e-014
lhumerus -47.7549 -22.1814 107.768
lradius 88.8677
lwrist 15.6125
lhand -19.7539 41.2495
lfingers 7.12502
lthumb 6.57741 71.1274
rfemur -40.6648 -6.20932 16.0253
rtibia 60.8591
rfoot -21.92 -9.1385
rtoes -23.238
lfemur -35.6638 11.4344 -18.9332
ltibia 68.5027
lfoot -24.8824 10.7199
ltoes -35.5554
122
root 9.4555 14.8662 7.70161 189.737 -17.2849 -179.517
lowerback 4.60461 -1.87388 -5.42379
upperback 6.24086 -3.33846 4.81858
thorax 4.54188 -2.30565 8.13552
lowerneck -1.93947 -10.0121 -11.5097
upperneck -7.84513 -13.0257 14.3754
head -0.244086 -6.68192 5.94542
rclavicle 4.73108e-014 2.38542e-015
rhumerus -40.5472 10.542 -79.0693
rradius 68.7829
rwrist -12.9926
rhand -20.3437 23.9359
rfingers 7.12502
rthumb 6.00799 -5.9589
lclavicle 4.73108e-014 2.38542e-015
lhumerus -47.8851 -23.5028 108.782
lradius 91.2959
lwrist 14.6485
lhand -18.7621 41.433
lfingers 7.12502
lthumb 7.53476 71.2788
rfemur -41.1197 -5.59756 15.9572
rtibia 60.1897
rfoot -21.4287 -9.26266
rtoes -23.837
lfemur -36.6927 9.6702 -18.1265
ltibia 66.9413
lfoot -24.9647 10.8664
ltoes -37.0468
123
root 9.39908 14.9025 7.78033 190.154 -16.2897 -179.328
lowerback 5.22256 -1.70201 -5.59328
upperback 6.50475 -3.19002 4.81777
thorax 4.45807 -2.26763 8.25713
lowerneck -1.73165 -10.2156 -11.8861
upperneck -8.52415 -13.2852 15.462
head -0.326591 -6.8663 6.34657
rclavicle 3.97569e-015 1.35174e-014
rhumerus -39.8738 10.8133 -79.0581
rradius 69.5026
rwrist -13.4867
rhand -21.0757 24.2106
rfingers 7.12502
rthumb 5.30128 -5.70305
lclavicle 3.97569e-015 1.35174e-014
lhumerus -47.8741 -25.039 109.689
lradius 93.7727
lwrist 14.0679
lhand -17.2505 41.7709
lfingers 7.12502
lthumb 8.99366 71.5592
rfemur -41.6698 -5.00799 15.8353
rtibia 59.3405
rfoot -20.6051 -8.91382
rtoes -23.5902
lfemur -37.8139 7.88049 -17.2888
ltibia 65.069
lfoot -24.6708 12.1332
ltoes -38.4254
124
root 9.33688 14.9514 7.87231 190.708 -15.245 -179.142
lowerback 5.85203 -1.52619 -5.77322
upperback 6.74723 -3.03029 4.72748
thorax 4.33717 -2.21669 8.28656
lowerneck -1.71665 -10.4443 -12.2286
upperneck -9.13621 -13.5722 16.6011
head -0.345942 -7.06898 6.74415
rclavicle -1.0138e-014 -4.45278e-014
rhumerus -39.1635 11.1189 -79.1918
rradius 70.2472
rwrist -13.8419
rhand -21.6452 24.6271
rfingers 7.12502
rthumb 4.75139 -5.29962
lclavicle -1.0138e-014 -4.45278e-014
lhumerus -47.9312 -26.8838 110.389
lradius 96.5563
lwrist 14.6967
lhand -16.2206 41.5526
lfingers 7.12502
lthumb 9.9873 71.2957
rfemur -42.3886 -4.5711 15.6692
rtibia 58.3611
rfoot -19.497 -8.2904
rtoes -23.4242
lfemur -39.0695 6.08491 -16.3963
ltibia 63.1313
lfoot -24.5993 12.8313
ltoes -38.7976
125
root 9.27203 15.0031 7.97564 191.365 -14.1582 -178.907
lowerback 6.48377 -1.36461 -6.10644
upperback 6.96836 -2.90073 4.67365
thorax 4.21156 -2.18953 8.44415
lowerneck -1.97507 -10.6277 -12.5635
upperneck -9.59038 -13.7915 17.4961
head -0.300884 -7.22346 7.05012
rclavicle -1.86858e-014 2.0276e-014
rhumerus -38.4189 11.7211 -79.3827
rradius 71.022
rwrist -14.1756
rhand -22.0183 24.9039
rfingers 7.12502
rthumb 4.39111 -5.03061
lclavicle -1.86858e-014 2.0276e-014
lhumerus -47.9389 -28.7781 110.922
lradius 99.6092
lwrist 16.445
lhand -16.133 41.2922
lfingers 7.12502
lthumb 10.0719 71.0312
rfemur -43.2777 -4.27587 15.542
rtibia 57.3098
rfoot -18.1522 -7.39299
rtoes -23.4377
lfemur -40.5362 4.48499 -15.427
ltibia 61.3137
lfoot -24.3711 12.5967
ltoes -39.3342
126
root 9.20158 15.0462 8.08691 192.013 -13.0311 -178.386
lowerback 6.96663 -1.18667 -6.30229
upperback 7.24731 -2.76004 4.71384
thorax 4.22645 -2.16782 8.61516
lowerneck -2.3881 -10.804 -12.8857
upperneck -9.93787 -13.9976 18.1675
head -0.219166 -7.3583 7.27387
rclavicle 2.20651e-014 -1.35174e-014
rhumerus -37.4995 12.4424 -79.5471
rradius 71.6515
rwrist -14.2836
rhand -21.8485 25.0817
rfingers 7.12502
rthumb 4.55508 -4.84928
lclavicle 2.20651e-014 -1.35174e-014
lhumerus -47.7149 -30.6958 111.313
lradius 102.666
lwrist 18.6867
lhand -17.1375 42.2724
lfingers 7.12502
lthumb 9.10271 72.056
rfemur -44.2722 -4.06599 15.7067
rtibia 56.2142
rfoot -16.7973 -6.25404
rtoes -22.2049
lfemur -42.2052 3.42985 -14.2371
ltibia 59.8945
lfoot -23.1866 11.5363
ltoes -41.2985
